<svg xmlns="http://www.w3.org/2000/svg"><defs><font id="icomoon" horiz-adv-x="1024"><font-face ascent="1194.667" descent="170.667" units-per-em="1024"/><glyph horiz-adv-x="0"/><glyph d="M828.416 299.264c10.24 0 17.408 7.168 17.408 17.408s-7.168 17.408-17.408 17.408H191.488c-10.24 0-17.408-7.168-17.408-17.408s7.168-17.408 17.408-17.408h636.928zM350.208 670.976c-9.216 0-17.408-8.192-17.408-17.408V440.576c0-9.216 8.192-17.408 17.408-17.408 10.24 0 18.432 8.192 18.432 17.408v212.992c0 9.216-8.192 17.408-18.432 17.408zm531.456-407.552H138.24c-10.24 0-17.408-8.192-17.408-17.408 0-10.24 7.168-17.408 17.408-17.408h743.424c9.216 0 17.408 7.168 17.408 17.408 0 9.216-8.192 17.408-17.408 17.408zm92.16 328.704-176.128 43.008H793.6v53.248c0 2.048-1.024 4.096-2.048 6.144l12.288-5.12c2.048-1.024 5.12-1.024 7.168-1.024 7.168 0 13.312 4.096 16.384 11.264 3.072 9.216-1.024 19.456-10.24 22.528l-112.64 47.104v149.504c0 111.616-68.608 186.368-177.152 193.536v54.272c0 9.216-7.168 17.408-17.408 17.408s-17.408-8.192-17.408-17.408v-54.272C384 1105.152 315.392 1030.4 315.392 918.784V769.28l-112.64-47.104c-9.216-3.072-13.312-13.312-10.24-22.528 4.096-9.216 14.336-13.312 23.552-10.24l12.288 5.12c-1.024-2.048-2.048-4.096-2.048-6.144v-54.272L46.08 592.128c-8.192-2.048-14.336-9.216-14.336-17.408V316.672c0-10.24 8.192-17.408 18.432-17.408h70.656c9.216 0 17.408 7.168 17.408 17.408s-8.192 17.408-17.408 17.408H67.584v226.304l158.72 37.888V387.328c0-9.216 8.192-17.408 18.432-17.408h530.432c10.24 0 18.432 8.192 18.432 17.408v211.968l158.72-38.912V334.08h-53.248c-9.216 0-17.408-7.168-17.408-17.408s8.192-17.408 17.408-17.408h70.656c10.24 0 18.432 7.168 18.432 17.408V574.72c0 8.192-6.144 15.36-14.336 17.408zm-463.872 485.376c72.704 0 150.528-36.864 158.72-141.312h-317.44c8.192 104.448 86.016 141.312 158.72 141.312zM350.208 901.376h319.488v-117.76L517.12 846.08c-5.12 2.048-9.216 2.048-14.336 0l-152.576-62.464v117.76zM757.76 688.384V405.76H262.144v282.624c0 7.168-4.096 13.312-10.24 16.384l258.048 106.496L768 704.768c-6.144-3.072-10.24-9.216-10.24-16.384zm-301.056-17.408c-9.216 0-17.408-8.192-17.408-17.408V440.576c0-9.216 8.192-17.408 17.408-17.408 10.24 0 17.408 8.192 17.408 17.408v212.992c0 9.216-7.168 17.408-17.408 17.408zM563.2 423.168c9.216 0 17.408 8.192 17.408 17.408v212.992c0 9.216-8.192 17.408-17.408 17.408s-17.408-8.192-17.408-17.408V440.576c0-9.216 7.168-17.408 17.408-17.408zm106.496 0c9.216 0 17.408 8.192 17.408 17.408v212.992c0 9.216-8.192 17.408-17.408 17.408-10.24 0-18.432-8.192-18.432-17.408V440.576c0-9.216 8.192-17.408 18.432-17.408z" glyph-name="icon_1" unicode="!"/><glyph d="M990.208 1130.752c0 29.696-24.576 53.248-53.248 53.248H87.04c-28.672 0-53.248-23.552-53.248-53.248v-17.408c0-13.312 6.144-25.6 14.336-35.84-8.192-9.216-14.336-21.504-14.336-34.816V759.04c0-13.312 6.144-25.6 14.336-34.816-8.192-10.24-14.336-22.528-14.336-35.84v-17.408c0-14.336 6.144-26.624 14.336-35.84-8.192-9.216-14.336-21.504-14.336-34.816V280.832c0-28.672 24.576-52.224 53.248-52.224h53.248c10.24 0 17.408 7.168 17.408 17.408v177.152c0 49.152 31.744 88.064 71.68 88.064 38.912 0 70.656-38.912 70.656-88.064V246.016c0-10.24 7.168-17.408 17.408-17.408h106.496c9.216 0 17.408 7.168 17.408 17.408v177.152c0 49.152 31.744 88.064 70.656 88.064s70.656-38.912 70.656-88.064V246.016c0-10.24 8.192-17.408 17.408-17.408H706.56c10.24 0 17.408 7.168 17.408 17.408v177.152c0 49.152 31.744 88.064 71.68 88.064 38.912 0 70.656-38.912 70.656-88.064V246.016c0-10.24 7.168-17.408 17.408-17.408h53.248c28.672 0 53.248 23.552 53.248 52.224V600.32c0 13.312-5.12 25.6-14.336 34.816 9.216 9.216 14.336 21.504 14.336 35.84v17.408c0 13.312-5.12 25.6-14.336 35.84 9.216 9.216 14.336 21.504 14.336 34.816v283.648c0 13.312-5.12 25.6-14.336 34.816 9.216 10.24 14.336 22.528 14.336 35.84v17.408zm-35.84-849.92c0-9.216-8.192-17.408-17.408-17.408h-35.84v159.744c0 68.608-47.104 123.904-105.472 123.904-59.392 0-106.496-55.296-106.496-123.904V263.424h-70.656v159.744c0 68.608-48.128 123.904-106.496 123.904s-106.496-55.296-106.496-123.904V263.424h-70.656v159.744c0 68.608-47.104 123.904-105.472 123.904-59.392 0-106.496-55.296-106.496-123.904V263.424H87.04c-9.216 0-17.408 8.192-17.408 17.408V600.32c0 9.216 8.192 17.408 17.408 17.408h849.92c9.216 0 17.408-8.192 17.408-17.408V280.832zm0 390.144c0-10.24-8.192-17.408-17.408-17.408H87.04c-9.216 0-17.408 7.168-17.408 17.408v17.408c0 10.24 8.192 17.408 17.408 17.408h849.92c9.216 0 17.408-7.168 17.408-17.408v-17.408zm-796.672 70.656v123.904c0 49.152 31.744 88.064 70.656 88.064 39.936 0 71.68-38.912 71.68-88.064V741.632H157.696zm283.648 0v123.904c0 49.152 31.744 88.064 70.656 88.064s70.656-38.912 70.656-88.064V741.632H441.344zm282.624 0v123.904c0 49.152 31.744 88.064 71.68 88.064 38.912 0 70.656-38.912 70.656-88.064V741.632H723.968zm230.4 17.408c0-9.216-8.192-17.408-17.408-17.408h-35.84v123.904c0 68.608-47.104 123.904-105.472 123.904-59.392 0-106.496-55.296-106.496-123.904V741.632h-70.656v123.904c0 68.608-48.128 123.904-106.496 123.904s-106.496-55.296-106.496-123.904V741.632h-70.656v123.904c0 68.608-47.104 123.904-105.472 123.904-59.392 0-106.496-55.296-106.496-123.904V741.632H87.04c-9.216 0-17.408 8.192-17.408 17.408v283.648c0 9.216 8.192 17.408 17.408 17.408h849.92c9.216 0 17.408-8.192 17.408-17.408V759.04zm0 354.304c0-10.24-8.192-17.408-17.408-17.408H87.04c-9.216 0-17.408 7.168-17.408 17.408v17.408c0 10.24 8.192 17.408 17.408 17.408h849.92c9.216 0 17.408-7.168 17.408-17.408v-17.408z" glyph-name="icon_4" unicode="$"/><glyph d="M954.368 759.04c21.504 16.384 35.84 41.984 35.84 70.656 0 38.912-24.576 70.656-58.368 82.944 14.336 16.384 22.528 36.864 22.528 59.392 0 41.984-28.672 76.8-68.608 86.016 10.24 12.288 15.36 28.672 15.36 46.08 0 44.032-38.912 79.872-88.064 79.872H556.032c-66.56 0-144.384-12.288-176.128-28.672l-28.672-14.336c-4.096 24.576-25.6 43.008-51.2 43.008H87.04c-28.672 0-53.248-23.552-53.248-53.248V724.224c0-29.696 24.576-53.248 53.248-53.248h212.992c22.528 0 41.984 14.336 49.152 34.816h30.72c30.72-36.864 185.344-230.4 185.344-335.872 0-76.8 44.032-89.088 70.656-89.088 39.936 0 88.064 18.432 88.064 106.496 0 48.128-13.312 150.528-28.672 212.992H901.12c49.152 0 89.088 38.912 89.088 88.064 0 28.672-14.336 54.272-35.84 70.656zM317.44 724.224c0-10.24-8.192-18.432-17.408-18.432H87.04c-9.216 0-17.408 8.192-17.408 18.432v406.528c0 10.24 8.192 17.408 17.408 17.408h212.992c9.216 0 17.408-7.168 17.408-17.408V724.224zm583.68-89.088H671.744c-6.144 0-11.264-2.048-14.336-7.168s-5.12-10.24-3.072-16.384c17.408-51.2 34.816-173.056 34.816-224.256 0-61.44-25.6-70.656-53.248-70.656-24.576 0-35.84 15.36-35.84 53.248 0 129.024-190.464 355.328-198.656 365.568-3.072 4.096-8.192 6.144-13.312 6.144h-35.84v360.448l44.032 21.504c23.552 12.288 93.184 24.576 159.744 24.576h257.024c28.672 0 53.248-19.456 53.248-44.032s-20.48-44.032-44.032-44.032c-10.24 0-18.432-8.192-18.432-17.408s8.192-18.432 18.432-18.432h15.36c2.048 0 3.072 1.024 5.12 2.048 2.048-1.024 4.096-2.048 5.12-2.048h18.432c28.672 0 53.248-23.552 53.248-52.224s-24.576-53.248-53.248-53.248h-18.432c-9.216 0-17.408-8.192-17.408-18.432s8.192-17.408 17.408-17.408h18.432c4.096 0 7.168 1.024 11.264 1.024 2.048 0 4.096-1.024 6.144-1.024h17.408c29.696 0 53.248-23.552 53.248-53.248 0-28.672-23.552-53.248-53.248-53.248h-34.816c-10.24 0-18.432-7.168-18.432-17.408s8.192-17.408 18.432-17.408h34.816c29.696 0 53.248-23.552 53.248-53.248s-23.552-53.248-53.248-53.248z" glyph-name="icon_17" unicode="3"/><glyph d="M971.776 269.568h-52.224v88.064c32.768 8.192 60.416 40.96 60.416 78.848 0 71.68-59.392 151.552-62.464 155.648s-8.192 7.168-14.336 6.144c-6.144 0-11.264-2.048-14.336-7.168-2.048-4.096-61.44-91.136-61.44-154.624 1.024-31.744 22.528-66.56 56.32-77.824v-89.088h-70.656v301.056c9.216 0 17.408 8.192 17.408 17.408 0 10.24-8.192 18.432-17.408 18.432v442.368c0 26.624-20.48 54.272-46.08 62.464l-216.064 67.584c-21.504 7.168-56.32 7.168-77.824 0l-216.064-67.584c-25.6-8.192-46.08-35.84-46.08-62.464V606.464c-9.216 0-17.408-8.192-17.408-18.432 0-9.216 8.192-17.408 17.408-17.408V269.568h-70.656v89.088c32.768 9.216 58.368 40.96 58.368 77.824 0 71.68-59.392 151.552-62.464 155.648s-8.192 7.168-14.336 6.144c-6.144 0-11.264-2.048-14.336-7.168-2.048-4.096-61.44-91.136-61.44-154.624 1.024-32.768 23.552-68.608 59.392-78.848v-88.064H52.224c-10.24 0-18.432-7.168-18.432-17.408s8.192-17.408 18.432-17.408h919.552c10.24 0 18.432 7.168 18.432 17.408s-8.192 17.408-18.432 17.408zM81.92 436.48c0 33.792 23.552 80.896 40.96 111.616 16.384-25.6 39.936-71.68 39.936-111.616 0-23.552-19.456-45.056-39.936-45.056-22.528 0-40.96 24.576-40.96 45.056zm412.672-166.912h-89.088v159.744h89.088V269.568zm123.904 0h-89.088v159.744h89.088V269.568zm158.72 0H653.312v159.744h35.84c9.216 0 17.408 8.192 17.408 17.408 0 10.24-8.192 18.432-17.408 18.432H334.848c-9.216 0-17.408-8.192-17.408-18.432 0-9.216 8.192-17.408 17.408-17.408h35.84V269.568H246.784v301.056h105.472v-17.408c0-10.24 8.192-17.408 18.432-17.408h282.624c10.24 0 18.432 7.168 18.432 17.408v17.408h105.472V269.568zm-389.12 301.056v35.84h247.808v-35.84H388.096zm389.12 35.84H671.744v17.408c0 10.24-8.192 17.408-18.432 17.408H370.688c-10.24 0-18.432-7.168-18.432-17.408v-17.408H246.784v442.368c0 11.264 10.24 25.6 21.504 28.672l215.04 67.584c15.36 5.12 41.984 5.12 57.344 0l215.04-67.584c11.264-3.072 21.504-17.408 21.504-28.672V606.464zm86.016-169.984c0 33.792 22.528 80.896 40.96 111.616 16.384-25.6 39.936-71.68 39.936-111.616 0-23.552-19.456-45.056-39.936-45.056-22.528 0-40.96 24.576-40.96 45.056zM706.56 959.744h-70.656c-9.216 0-17.408-7.168-17.408-17.408V871.68c0-10.24 7.168-17.408 17.408-17.408s17.408 7.168 17.408 17.408v53.248h53.248c10.24 0 18.432 8.192 18.432 17.408s-8.192 17.408-18.432 17.408zm-318.464 0H317.44c-10.24 0-17.408-7.168-17.408-17.408V871.68c0-10.24 7.168-17.408 17.408-17.408 9.216 0 17.408 7.168 17.408 17.408v53.248h53.248c10.24 0 17.408 8.192 17.408 17.408s-7.168 17.408-17.408 17.408zm0-158.72H317.44c-10.24 0-17.408-8.192-17.408-17.408v-71.68c0-9.216 7.168-17.408 17.408-17.408 9.216 0 17.408 8.192 17.408 17.408v53.248h53.248c10.24 0 17.408 8.192 17.408 18.432 0 9.216-7.168 17.408-17.408 17.408zm159.744 158.72h-71.68c-9.216 0-17.408-7.168-17.408-17.408V871.68c0-10.24 8.192-17.408 17.408-17.408 10.24 0 18.432 7.168 18.432 17.408v53.248h53.248c9.216 0 17.408 8.192 17.408 17.408s-8.192 17.408-17.408 17.408zm0-158.72h-71.68c-9.216 0-17.408-8.192-17.408-17.408v-71.68c0-9.216 8.192-17.408 17.408-17.408 10.24 0 18.432 8.192 18.432 17.408v53.248h53.248c9.216 0 17.408 8.192 17.408 18.432 0 9.216-8.192 17.408-17.408 17.408zm158.72 0h-70.656c-9.216 0-17.408-8.192-17.408-17.408v-71.68c0-9.216 7.168-17.408 17.408-17.408s17.408 8.192 17.408 17.408v53.248h53.248a18.355 18.355 0 0 1 18.432 18.432c-1.024 9.216-8.192 17.408-18.432 17.408z" glyph-name="icon_20" unicode="6"/><glyph d="M908.288 679.168c4.096 17.408 6.144 35.84 6.144 53.248 0 132.096-107.52 239.616-238.592 239.616-74.752 0-145.408-35.84-190.464-94.208-69.632 160.768-175.104 291.84-182.272 300.032-3.072 4.096-8.192 6.144-14.336 6.144-5.12 0-10.24-3.072-13.312-7.168-10.24-13.312-242.688-326.656-241.664-551.936C34.816 508.16 138.24 378.112 277.504 370.944V246.016c0-10.24 8.192-17.408 17.408-17.408 10.24 0 17.408 7.168 17.408 17.408v124.928c99.328 9.216 185.344 79.872 219.136 171.008 34.816-25.6 74.752-41.984 117.76-46.08V246.016c0-10.24 8.192-17.408 17.408-17.408 10.24 0 17.408 7.168 17.408 17.408v88.064h106.496c49.152 0 89.088 31.744 89.088 71.68v36.864c59.392 8.192 105.472 59.392 105.472 121.856 0 52.224-31.744 96.256-76.8 114.688zM290.816 405.76c-123.904 0-221.184 117.76-221.184 219.136-1.024 183.296 169.984 440.32 220.16 512 51.2-67.584 221.184-307.2 221.184-512 0-116.736-102.4-219.136-220.16-219.136zM675.84 529.664c-49.152 0-96.256 17.408-134.144 49.152 3.072 15.36 5.12 30.72 5.12 46.08 0 70.656-18.432 144.384-45.056 214.016 36.864 60.416 103.424 97.28 174.08 97.28 111.616 0 203.776-91.136 203.776-203.776 0-15.36-2.048-29.696-5.12-45.056-4.096 1.024-9.216 1.024-13.312 1.024-67.584 0-123.904-55.296-123.904-123.904 0-8.192 1.024-16.384 3.072-24.576-21.504-7.168-43.008-10.24-64.512-10.24zM843.776 405.76c0-19.456-24.576-35.84-53.248-35.84H684.032v123.904c23.552 1.024 46.08 5.12 67.584 12.288 18.432-33.792 52.224-58.368 92.16-64.512v-35.84zm17.408 70.656c-48.128 0-88.064 38.912-88.064 88.064s39.936 89.088 88.064 89.088c49.152 0 89.088-39.936 89.088-89.088s-39.936-88.064-89.088-88.064z" glyph-name="icon_21" unicode="7"/><glyph d="M750.592 476.416c-4.096 13.312-11.264 24.576-21.504 33.792l-118.784 133.12 35.84 193.536c4.096 34.816-1.024 62.464-17.408 81.92-14.336 17.408-35.84 28.672-64.512 30.72-38.912 4.096-72.704-24.576-76.8-62.464L455.68 641.28c-2.048-21.504 12.288-57.344 29.696-72.704L619.52 419.072l65.536-141.312c0-2.048 18.432-49.152 69.632-49.152 5.12 0 10.24 0 15.36 1.024 14.336 3.072 25.6 9.216 32.768 20.48 11.264 18.432 5.12 43.008-1.024 64.512l-51.2 161.792zm21.504-207.872c-1.024-2.048-6.144-3.072-8.192-4.096-32.768-6.144-45.056 24.576-46.08 27.648l-66.56 143.36c-1.024 2.048-2.048 3.072-3.072 5.12L510.976 593.152c-1.024 0-1.024 1.024-2.048 1.024-8.192 8.192-18.432 32.768-17.408 43.008l30.72 245.76c2.048 18.432 17.408 31.744 35.84 31.744h3.072c18.432-2.048 32.768-8.192 39.936-18.432 10.24-11.264 13.312-29.696 10.24-53.248L574.464 641.28c-1.024-6.144 0-11.264 4.096-15.36l124.928-140.288c1.024 0 1.024-1.024 2.048-1.024 5.12-5.12 8.192-10.24 10.24-18.432l50.176-155.648 2.048-5.12c3.072-12.288 8.192-30.72 4.096-36.864zM546.816 456.96l-31.744-59.392c0-1.024-1.024-2.048-1.024-2.048L412.672 268.544c-11.264-14.336-35.84-34.816-62.464-34.816-10.24 0-21.504 2.048-31.744 10.24-32.768 23.552-28.672 56.32-15.36 77.824l107.52 144.384 26.624 73.728c4.096 9.216 14.336 14.336 23.552 11.264s13.312-14.336 10.24-23.552l-27.648-75.776c-1.024-2.048-2.048-3.072-3.072-5.12L331.776 302.336c-6.144-11.264-4.096-21.504 8.192-29.696 18.432-14.336 45.056 17.408 45.056 18.432L485.376 416l30.72 57.344c4.096 8.192 15.36 11.264 23.552 7.168 8.192-5.12 12.288-15.36 7.168-23.552zM819.2 628.992c-11.264-13.312-25.6-18.432-38.912-18.432-14.336 0-27.648 6.144-36.864 13.312l-96.256 69.632c-7.168 5.12-9.216 16.384-4.096 24.576 6.144 8.192 17.408 10.24 25.6 4.096l96.256-70.656c5.12-4.096 17.408-11.264 27.648 1.024 3.072 3.072 3.072 5.12 2.048 5.12 0 6.144-8.192 15.36-23.552 27.648L659.456 790.784c-7.168 6.144-7.168 17.408-1.024 24.576 7.168 7.168 18.432 7.168 25.6 1.024l20.48-20.48 90.112-83.968c17.408-14.336 33.792-30.72 35.84-51.2 1.024-7.168-1.024-19.456-11.264-31.744zM607.232 969.984c16.384 0 31.744 3.072 45.056 11.264 48.128 26.624 64.512 91.136 35.84 143.36-20.48 36.864-56.32 59.392-95.232 59.392-16.384 0-31.744-4.096-45.056-11.264-48.128-26.624-64.512-91.136-35.84-143.36 20.48-36.864 56.32-59.392 95.232-59.392zm-43.008 172.032c9.216 4.096 18.432 6.144 28.672 6.144 25.6 0 50.176-15.36 63.488-39.936 19.456-35.84 10.24-78.848-21.504-96.256-8.192-4.096-17.408-7.168-27.648-7.168-25.6 0-50.176 16.384-64.512 40.96-19.456 35.84-9.216 78.848 21.504 96.256zm-237.568-527.36c45.056 0 83.968 33.792 90.112 78.848l29.696 209.92c3.072 23.552-3.072 47.104-17.408 65.536s-34.816 30.72-59.392 33.792c-49.152 6.144-92.16-28.672-97.28-77.824-3.072-37.888-20.48-70.656-30.72-76.8-25.6-16.384-44.032-65.536-48.128-103.424l-3.072-26.624c-2.048-23.552 4.096-47.104 19.456-65.536s35.84-29.696 59.392-32.768l48.128-4.096c3.072-1.024 6.144-1.024 9.216-1.024zm-89.088 60.416c-9.216 11.264-13.312 24.576-11.264 38.912l3.072 26.624c4.096 37.888 20.48 70.656 30.72 76.8 25.6 16.384 44.032 65.536 48.128 104.448 2.048 26.624 24.576 46.08 50.176 46.08h8.192c13.312-2.048 25.6-9.216 34.816-20.48 8.192-11.264 12.288-24.576 10.24-38.912L381.952 697.6c-4.096-28.672-31.744-50.176-60.416-47.104l-48.128 5.12c-14.336 1.024-26.624 8.192-35.84 19.456z" glyph-name="icon_28" unicode="&gt;"/><glyph d="M354.304 903.424c-33.792 4.096-57.344-3.072-59.392-3.072-9.216-3.072-15.36-13.312-12.288-22.528 2.048-7.168 9.216-12.288 17.408-12.288 1.024 0 3.072 0 5.12 1.024 0 0 19.456 5.12 45.056 2.048 10.24-1.024 18.432 6.144 19.456 15.36 1.024 10.24-5.12 18.432-15.36 19.456zm-143.36-20.48c-38.912 0-70.656-31.744-70.656-70.656s31.744-70.656 70.656-70.656 70.656 31.744 70.656 70.656-31.744 70.656-70.656 70.656zm0-105.472c-19.456 0-34.816 15.36-34.816 34.816s15.36 35.84 34.816 35.84c19.456 0 35.84-16.384 35.84-35.84s-16.384-34.816-35.84-34.816zm562.176-82.944c-55.296 0-101.376-46.08-101.376-101.376s46.08-101.376 101.376-101.376c55.296 0 101.376 46.08 101.376 101.376s-46.08 101.376-101.376 101.376zm0-166.912c-35.84 0-65.536 29.696-65.536 65.536s29.696 65.536 65.536 65.536 65.536-29.696 65.536-65.536-29.696-65.536-65.536-65.536zm-332.8 324.608c-4.096 5.12-8.192 10.24-13.312 15.36-6.144 7.168-17.408 8.192-24.576 2.048-7.168-7.168-8.192-18.432-1.024-25.6 4.096-4.096 7.168-9.216 11.264-13.312 7.168-10.24 15.36-20.48 25.6-28.672 3.072-2.048 7.168-3.072 11.264-3.072 5.12 0 10.24 2.048 13.312 6.144 6.144 8.192 5.12 19.456-3.072 25.6-7.168 5.12-13.312 13.312-19.456 21.504zm142.336-18.432c-3.072 9.216-14.336 13.312-22.528 9.216-11.264-5.12-23.552-9.216-35.84-13.312-4.096-2.048-8.192-3.072-12.288-4.096-9.216-2.048-14.336-12.288-12.288-21.504 2.048-8.192 9.216-13.312 17.408-13.312 1.024 0 3.072 0 4.096 1.024 4.096 1.024 9.216 2.048 14.336 4.096 13.312 4.096 25.6 9.216 37.888 14.336 9.216 4.096 13.312 14.336 9.216 23.552zm46.08 9.216c3.072 0 7.168 1.024 10.24 3.072 23.552 17.408 36.864 31.744 43.008 38.912 6.144 8.192 5.12 18.432-3.072 24.576-7.168 7.168-18.432 5.12-24.576-2.048-5.12-6.144-16.384-18.432-35.84-31.744-8.192-6.144-10.24-17.408-4.096-24.576 3.072-5.12 8.192-8.192 14.336-8.192zM742.4 901.376c38.912 0 70.656 31.744 70.656 70.656s-31.744 70.656-70.656 70.656c-38.912 0-70.656-31.744-70.656-70.656s31.744-70.656 70.656-70.656zm0 105.472c19.456 0 34.816-15.36 34.816-34.816s-15.36-35.84-34.816-35.84-35.84 16.384-35.84 35.84c0 19.456 16.384 34.816 35.84 34.816zM918.528 738.56c0 1.024 1.024 2.048 1.024 3.072v326.656c0 7.168-4.096 13.312-10.24 16.384l-212.992 97.28c-4.096 3.072-10.24 3.072-14.336 0l-205.824-94.208-204.8 94.208c-4.096 3.072-10.24 3.072-14.336 0l-212.992-97.28c-6.144-3.072-10.24-9.216-10.24-16.384V431.36c0-6.144 3.072-12.288 8.192-15.36s12.288-3.072 17.408-1.024l204.8 94.208 204.8-95.232c3.072-1.024 5.12-1.024 7.168-1.024 3.072 0 5.12 0 8.192 1.024l116.736 54.272c62.464-123.904 155.648-229.376 159.744-234.496 3.072-3.072 8.192-5.12 13.312-5.12 5.12 0 9.216 2.048 13.312 5.12 4.096 6.144 113.664 131.072 174.08 268.288 13.312 28.672 19.456 58.368 19.456 89.088 0 57.344-23.552 110.592-62.464 147.456zM477.184 449.792 271.36 545.024c-4.096 2.048-10.24 2.048-14.336 0L69.632 459.008v598.016l194.56 90.112 204.8-95.232c5.12-2.048 10.24-2.048 15.36 0l204.8 95.232 194.56-90.112V766.208c-31.744 19.456-69.632 31.744-110.592 31.744-114.688 0-207.872-93.184-207.872-206.848 0-31.744 6.144-61.44 19.456-88.064 1.024-1.024 1.024-2.048 2.048-3.072l-109.568-50.176zm451.584 67.584c-46.08-105.472-123.904-206.848-154.624-243.712C742.4 310.528 663.552 410.88 617.472 517.376c-11.264 22.528-17.408 48.128-17.408 73.728 0 94.208 77.824 171.008 173.056 171.008s173.056-76.8 173.056-171.008c0-25.6-6.144-50.176-17.408-73.728z" glyph-name="icon_35" unicode="E"/><glyph d="M493.568 446.72c4.096-4.096 8.192-6.144 13.312-6.144 5.12 0 10.24 2.048 13.312 6.144 6.144 7.168 150.528 172.032 229.376 354.304 17.408 35.84 26.624 74.752 26.624 114.688 0 147.456-120.832 268.288-270.336 268.288s-269.312-120.832-269.312-268.288c0-40.96 8.192-78.848 25.6-114.688 79.872-182.272 225.28-347.136 231.424-354.304zm12.288 701.44c130.048 0 234.496-104.448 234.496-232.448 0-34.816-7.168-68.608-22.528-100.352-63.488-146.432-173.056-284.672-210.944-329.728-37.888 45.056-148.48 183.296-212.992 329.728-14.336 31.744-22.528 65.536-22.528 100.352 0 128 105.472 232.448 234.496 232.448zm0-357.376c70.656 0 128 57.344 128 128s-57.344 128-128 128-128-57.344-128-128 57.344-128 128-128zm0 220.16c51.2 0 93.184-40.96 93.184-92.16S557.056 825.6 505.856 825.6s-92.16 41.984-92.16 93.184c0 51.2 40.96 92.16 92.16 92.16zm354.304-353.28c-1.024 5.12-5.12 10.24-10.24 12.288l-88.064 34.816L748.544 672l79.872-31.744 94.208-361.472-177.152 89.088c-5.12 3.072-10.24 3.072-15.36 0l-223.232-102.4-222.208 102.4c-5.12 3.072-10.24 3.072-15.36 0L92.16 278.784l93.184 361.472L266.24 672l-13.312 32.768-89.088-34.816c-5.12-2.048-8.192-7.168-10.24-12.288L47.104 250.112c-1.024-6.144 1.024-13.312 6.144-18.432 6.144-4.096 13.312-5.12 19.456-2.048l204.8 103.424 222.208-103.424c5.12-2.048 10.24-2.048 15.36 0L737.28 333.056l204.8-103.424c2.048-1.024 5.12-1.024 7.168-1.024 4.096 0 8.192 1.024 11.264 3.072 5.12 5.12 8.192 12.288 6.144 18.432L860.16 657.664z" glyph-name="icon_39" unicode="I"/><glyph d="M321.6 417.6c12.48-12.48 32.768-12.48 45.248 0L544 594.752 721.152 417.6c12.48-12.48 32.768-12.48 45.248 0s12.48 32.768 0 45.248L589.248 640 766.4 817.152c12.48 12.48 12.48 32.768 0 45.248s-32.768 12.48-45.248 0L544 685.248 366.848 862.4c-12.48 12.48-32.768 12.48-45.248 0s-12.48-32.768 0-45.248L498.752 640 321.6 462.848c-12.48-12.48-12.48-32.768 0-45.248z" glyph-name="times" unicode="M"/><glyph d="M441.216 365.184c1.28-1.024 2.048-2.432 3.392-3.392 1.92-1.28 4.096-1.536 6.144-2.432 2.432-1.152 4.8-2.24 7.36-2.944 2.496-.64 4.928-.96 7.488-1.152 3.648-.384 7.168-.384 10.752.128 1.472.256 2.88.64 4.352 1.024 4.416 1.088 8.512 2.816 12.544 5.248.704.448 1.28.96 1.984 1.408 2.624 1.792 5.44 3.136 7.68 5.568 1.6 1.728 2.304 3.968 3.584 5.888.064.064.192.128.192.192l381.376 611.264c13.568 20.672 7.744 48.448-12.992 62.016s-48.448 7.744-62.016-12.992L460.8 470.464 265.984 659.968c-18.176 16.832-46.464 15.744-63.296-2.432-16.768-18.176-15.68-46.528 2.496-63.296l234.368-228.032c.448-.448 1.088-.576 1.664-1.024z" glyph-name="check" unicode="N"/><glyph d="M544 1120c-265.088 0-480-214.912-480-480s214.912-480 480-480 480 214.912 480 480-214.912 480-480 480zm0-896c-229.376 0-416 186.624-416 416s186.624 416 416 416 416-186.624 416-416-186.624-416-416-416zm256 448H288c-17.664 0-32-14.336-32-32s14.336-32 32-32h512c17.664 0 32 14.336 32 32s-14.336 32-32 32z" glyph-name="minus" unicode="O"/><glyph d="M544 1120c-265.088 0-480-214.912-480-480s214.912-480 480-480 480 214.912 480 480-214.912 480-480 480zm0-896c-229.376 0-416 186.624-416 416s186.624 416 416 416 416-186.624 416-416-186.624-416-416-416zm256 448H576v224c0 17.664-14.336 32-32 32s-32-14.336-32-32V672H288c-17.664 0-32-14.336-32-32s14.336-32 32-32h224V384c0-17.664 14.336-32 32-32s32 14.336 32 32v224h224c17.664 0 32 14.336 32 32s-14.336 32-32 32z" glyph-name="plus" unicode="P"/><glyph d="M447.488 1077.504c9.216 0 17.408 8.192 17.408 18.432v70.656c0 9.216-8.192 17.408-17.408 17.408s-17.408-8.192-17.408-17.408v-70.656c0-10.24 7.168-18.432 17.408-18.432zM890.88 937.216l-121.856 97.28c-18.432 14.336-50.176 25.6-73.728 25.6H163.84c-28.672 0-53.248-23.552-53.248-53.248V794.88c0-29.696 24.576-53.248 53.248-53.248h266.24V334.08c0-9.216 7.168-17.408 17.408-17.408 52.224 0 88.064-29.696 107.52-53.248H337.92c11.264 14.336 27.648 30.72 51.2 41.984 8.192 4.096 12.288 14.336 8.192 23.552-4.096 8.192-14.336 12.288-23.552 8.192-57.344-27.648-82.944-81.92-83.968-83.968-3.072-5.12-2.048-12.288 1.024-17.408s9.216-7.168 15.36-7.168H588.8c6.144 0 12.288 3.072 15.36 8.192s3.072 12.288 0 17.408c-2.048 4.096-46.08 87.04-139.264 97.28v390.144h230.4c23.552 0 55.296 11.264 73.728 25.6l121.856 97.28c11.264 9.216 18.432 22.528 18.432 36.864s-7.168 26.624-18.432 35.84zm-22.528-45.056L747.52 794.88c-12.288-9.216-36.864-17.408-52.224-17.408H163.84c-9.216 0-17.408 7.168-17.408 17.408v211.968c0 10.24 8.192 18.432 17.408 18.432h531.456c15.36 0 39.936-9.216 52.224-18.432l120.832-97.28c3.072-3.072 5.12-6.144 5.12-8.192s-2.048-6.144-5.12-9.216z" glyph-name="icon_46" unicode="R"/><glyph d="M512 1056c-212.096 0-384-171.904-384-384s171.904-384 384-384 384 171.904 384 384-171.904 384-384 384zm0-704c-176.448 0-320 143.552-320 320s143.552 320 320 320 320-143.552 320-320-143.552-320-320-320zM320 672c0-106.039 85.961-192 192-192s192 85.961 192 192-85.961 192-192 192-192-85.961-192-192z" glyph-name="bullet" unicode="\"/><glyph d="M808.96 722.176c-7.168 10.24-7.168 28.672 0 38.912l102.4 153.6c8.192 13.312 10.24 27.648 4.096 38.912S896 972.032 880.64 972.032H615.424v105.472c0 29.696-24.576 53.248-53.248 53.248h-424.96v35.84c0 9.216-8.192 17.408-17.408 17.408s-18.432-8.192-18.432-17.408V246.016c0-10.24 8.192-17.408 18.432-17.408s17.408 7.168 17.408 17.408v389.12H491.52c9.216 0 17.408 8.192 17.408 18.432 0 9.216-8.192 17.408-17.408 17.408H137.216v424.96h424.96c9.216 0 17.408-8.192 17.408-18.432V670.976c0-14.336-10.24-34.816-21.504-43.008l-84.992-63.488c-18.432-14.336-17.408-27.648-15.36-34.816s9.216-18.432 33.792-18.432h389.12c15.36 0 28.672 7.168 34.816 18.432s4.096 25.6-4.096 38.912l-102.4 153.6zm71.68-175.104H508.928l70.656 53.248c20.48 14.336 35.84 45.056 35.84 70.656v265.216h267.264c0-1.024-1.024-1.024-1.024-2.048l-102.4-153.6c-15.36-21.504-15.36-56.32 0-77.824l102.4-153.6c0-1.024 1.024-2.048 1.024-2.048h-2.048z" glyph-name="icon_61" unicode="]"/><glyph d="M566.272 228.608H457.728c-28.672 0-51.2 22.528-51.2 50.176v70.656c0 8.192-7.168 17.408-14.336 19.456l-32.768 13.312c-10.24 5.12-19.456 2.048-24.576-3.072l-50.176-49.152c-19.456-19.456-52.224-19.456-71.68 0l-77.824 76.8c-9.216 9.216-14.336 22.528-14.336 35.84 0 14.336 5.12 26.624 14.336 36.864l50.176 49.152c5.12 5.12 7.168 17.408 4.096 23.552l-14.336 33.792c-2.048 8.192-12.288 14.336-19.456 14.336H84.992c-27.648 0-51.2 23.552-51.2 51.2v109.568c0 27.648 23.552 51.2 51.2 51.2h70.656c7.168 0 17.408 6.144 19.456 13.312l13.312 32.768c4.096 8.192 2.048 19.456-3.072 24.576l-50.176 50.176c-9.216 10.24-14.336 22.528-14.336 35.84s5.12 26.624 14.336 36.864l77.824 76.8c18.432 19.456 53.248 19.456 71.68 0l50.176-50.176c5.12-4.096 17.408-6.144 23.552-3.072l32.768 13.312c8.192 3.072 15.36 12.288 15.36 19.456v70.656c0 28.672 22.528 51.2 51.2 51.2h108.544c28.672 0 51.2-22.528 51.2-51.2v-70.656c0-7.168 7.168-16.384 14.336-18.432l32.768-14.336c10.24-5.12 19.456-1.024 24.576 3.072l50.176 50.176c19.456 19.456 53.248 19.456 71.68 0l77.824-76.8c9.216-10.24 14.336-22.528 14.336-36.864s-5.12-25.6-14.336-35.84l-50.176-50.176c-5.12-5.12-7.168-16.384-4.096-22.528l14.336-33.792c3.072-8.192 12.288-15.36 19.456-15.36h70.656c27.648 0 51.2-22.528 51.2-50.176V651.52c0-27.648-23.552-51.2-51.2-51.2h-70.656c-7.168 0-16.384-6.144-19.456-13.312l-13.312-33.792c-4.096-7.168-2.048-19.456 3.072-24.576l50.176-50.176c9.216-9.216 14.336-21.504 14.336-35.84 0-13.312-5.12-26.624-14.336-35.84l-77.824-76.8c-18.432-19.456-52.224-19.456-71.68 0l-50.176 49.152c-5.12 5.12-16.384 7.168-22.528 4.096l-33.792-13.312c-8.192-3.072-15.36-12.288-15.36-20.48v-70.656c0-27.648-22.528-50.176-51.2-50.176zM350.208 427.264c9.216 0 18.432-2.048 26.624-6.144l30.72-12.288c22.528-7.168 40.96-32.768 40.96-59.392v-70.656c0-4.096 4.096-8.192 9.216-8.192h108.544c5.12 0 9.216 4.096 9.216 8.192v70.656c0 26.624 18.432 51.2 41.984 59.392l30.72 13.312c18.432 9.216 53.248 5.12 70.656-12.288l50.176-50.176c4.096-4.096 8.192-4.096 12.288 0l76.8 76.8c2.048 3.072 3.072 5.12 3.072 6.144s-1.024 4.096-3.072 6.144l-49.152 50.176c-18.432 18.432-23.552 49.152-12.288 71.68l12.288 30.72c8.192 23.552 33.792 41.984 59.392 41.984h70.656c4.096 0 8.192 4.096 8.192 8.192v109.568c0 4.096-4.096 8.192-8.192 8.192h-70.656c-25.6 0-51.2 18.432-59.392 43.008l-12.288 30.72c-11.264 21.504-6.144 52.224 12.288 70.656l49.152 50.176c2.048 2.048 3.072 4.096 3.072 5.12s-1.024 4.096-3.072 6.144l-76.8 77.824c-4.096 4.096-8.192 4.096-12.288 0l-50.176-50.176c-17.408-17.408-49.152-22.528-71.68-11.264l-30.72 12.288c-22.528 7.168-40.96 32.768-40.96 58.368v70.656a9.178 9.178 0 0 1-9.216 9.216H457.728a9.178 9.178 0 0 1-9.216-9.216v-70.656c0-25.6-18.432-51.2-41.984-59.392l-30.72-12.288c-18.432-9.216-53.248-5.12-70.656 12.288l-50.176 50.176c-4.096 4.096-8.192 4.096-12.288 0l-76.8-77.824c-2.048-2.048-3.072-4.096-3.072-6.144s1.024-3.072 3.072-5.12l49.152-50.176c18.432-18.432 23.552-49.152 12.288-72.704l-12.288-30.72c-8.192-22.528-33.792-40.96-59.392-40.96H84.992c-4.096 0-8.192-4.096-8.192-8.192V651.52c0-4.096 4.096-8.192 8.192-8.192h70.656c25.6 0 51.2-18.432 59.392-43.008l13.312-30.72c10.24-21.504 5.12-52.224-12.288-70.656l-50.176-50.176c-2.048-2.048-3.072-4.096-3.072-6.144s1.024-3.072 3.072-5.12l76.8-77.824c4.096-4.096 8.192-4.096 12.288 0l50.176 50.176c10.24 11.264 27.648 17.408 45.056 17.408zM512 540.928c-91.136 0-164.864 73.728-164.864 164.864S420.864 871.68 512 871.68c91.136 0 164.864-74.752 164.864-165.888S603.136 540.928 512 540.928zm0 287.744c-67.584 0-122.88-55.296-122.88-122.88S444.416 583.936 512 583.936s122.88 54.272 122.88 121.856-55.296 122.88-122.88 122.88z" glyph-name="icon_65" unicode="a"/><glyph d="M940.032 1071.36h-271.36C644.096 1137.92 580.608 1184 507.904 1184s-136.192-46.08-160.768-112.64H76.8c-12.288 0-21.504-9.216-21.504-20.48s9.216-20.48 21.504-20.48h57.344c-7.168-4.096-12.288-11.264-11.264-19.456l43.008-721.92c2.048-33.792 29.696-60.416 61.44-60.416H788.48c32.768 0 59.392 26.624 62.464 60.416l43.008 721.92c0 8.192-4.096 15.36-11.264 19.456h57.344c11.264 0 20.48 9.216 20.48 20.48s-9.216 20.48-20.48 20.48zm-432.128 70.656c49.152 0 93.184-27.648 115.712-70.656H392.192c22.528 43.008 66.56 70.656 115.712 70.656zm344.064-129.024L808.96 292.096c-1.024-12.288-10.24-22.528-20.48-22.528H227.328c-10.24 0-19.456 10.24-20.48 22.528l-43.008 720.896c0 8.192-5.12 14.336-11.264 17.408h711.68c-7.168-3.072-11.264-9.216-12.288-17.408zM329.728 400.64 302.08 896.256c-1.024 11.264 8.192 21.504 19.456 22.528 11.264 0 21.504-8.192 21.504-20.48l27.648-495.616c1.024-11.264-8.192-20.48-19.456-21.504h-1.024c-11.264 0-20.48 8.192-20.48 19.456zm315.392 2.048 27.648 495.616c1.024 12.288 10.24 20.48 21.504 20.48 12.288-1.024 20.48-11.264 19.456-22.528L686.08 400.64c0-11.264-9.216-19.456-20.48-19.456h-1.024c-11.264 1.024-20.48 10.24-19.456 21.504zm-157.696-1.024V897.28c0 12.288 9.216 21.504 20.48 21.504s20.48-9.216 20.48-21.504V401.664c0-11.264-9.216-20.48-20.48-20.48s-20.48 9.216-20.48 20.48z" glyph-name="icon_67" unicode="c"/><glyph d="m209.92 608.512-10.24-184.32c0-6.144 2.048-11.264 6.144-15.36s9.216-6.144 14.336-6.144h1.024l184.32 10.24c5.12 0 10.24 3.072 13.312 6.144L967.68 967.936c4.096 4.096 6.144 9.216 6.144 15.36 0 5.12-2.048 10.24-6.144 14.336l-173.056 173.056c-4.096 4.096-9.216 6.144-14.336 6.144-6.144 0-11.264-2.048-15.36-6.144L216.064 621.824c-3.072-3.072-5.12-8.192-6.144-13.312zm570.368 518.144 143.36-143.36-59.392-59.392-143.36 143.36 59.392 59.392zM251.904 598.272 691.2 1037.568l143.36-143.36-439.296-439.296-64.512-4.096c-1.024 22.528-9.216 44.032-24.576 59.392s-35.84 23.552-58.368 24.576l4.096 63.488zm-6.144-106.496c12.288 0 22.528-4.096 30.72-11.264 8.192-8.192 12.288-20.48 12.288-32.768l-46.08-2.048 3.072 46.08zm722.944 232.448c-11.264 0-20.48-10.24-20.48-21.504V270.592H75.776v871.424h433.152c11.264 0 20.48 9.216 20.48 21.504s-9.216 20.48-20.48 20.48H55.296c-11.264 0-21.504-9.216-21.504-20.48V249.088c0-11.264 10.24-20.48 21.504-20.48h913.408c12.288 0 21.504 9.216 21.504 20.48V702.72c0 11.264-9.216 21.504-21.504 21.504z" glyph-name="icon_68" unicode="d"/><glyph d="M864 992h-96c0 35.328-28.672 64-64 64h-64c-35.328 0-64-28.672-64-64H160c-17.664 0-32-14.336-32-32s14.336-32 32-32h416c0-35.328 28.672-64 64-64h64c35.328 0 64 28.672 64 64h96c17.664 0 32 14.336 32 32s-14.336 32-32 32zm-160-64h-64v64h64v-64zm160-192H448c0 35.328-28.672 64-64 64h-64c-35.328 0-64-28.672-64-64h-96c-17.664 0-32-14.336-32-32s14.336-32 32-32h96c0-35.328 28.672-64 64-64h64c35.328 0 64 28.672 64 64h416c17.664 0 32 14.336 32 32s-14.336 32-32 32zm-480-64h-64v64h64v-64zm480-192H640c0 35.328-28.672 64-64 64h-64c-35.328 0-64-28.672-64-64H160c-17.664 0-32-14.336-32-32s14.336-32 32-32h288c0-35.328 28.672-64 64-64h64c35.328 0 64 28.672 64 64h224c17.664 0 32 14.336 32 32s-14.336 32-32 32zm-288-64h-64v64h64v-64z" glyph-name="settings" unicode="f"/><glyph d="M514.048 763.136c-102.4 0-185.344 94.208-185.344 209.92 0 116.736 82.944 210.944 185.344 210.944s185.344-94.208 185.344-210.944c0-115.712-82.944-209.92-185.344-209.92zm0 377.856c-78.848 0-142.336-74.752-142.336-167.936 0-92.16 63.488-166.912 142.336-166.912s142.336 74.752 142.336 166.912c0 93.184-63.488 167.936-142.336 167.936zm312.32-912.384H194.56c-11.264 0-20.48 8.192-21.504 19.456L159.744 451.84c-5.12 66.56 47.104 143.36 112.64 166.912 153.6 55.296 322.56 55.296 476.16 1.024 72.704-27.648 116.736-108.544 112.64-167.936l-13.312-203.776c-1.024-11.264-10.24-19.456-21.504-19.456zM215.04 271.616h590.848l12.288 183.296c3.072 43.008-32.768 104.448-84.992 123.904-142.336 51.2-302.08 51.2-446.464 0-51.2-19.456-87.04-80.896-83.968-123.904l12.288-183.296z" glyph-name="icon_70" unicode="g"/><glyph d="M880.64 793.856H793.6V897.28c0 158.72-128 286.72-285.696 286.72s-286.72-128-286.72-286.72V793.856h-86.016c-34.816 0-62.464-27.648-62.464-61.44V290.048c0-33.792 27.648-61.44 62.464-61.44H880.64c33.792 0 61.44 27.648 61.44 61.44v442.368c0 33.792-27.648 61.44-61.44 61.44zM262.144 897.28c0 135.168 110.592 245.76 245.76 245.76S752.64 1032.448 752.64 897.28V793.856H262.144V897.28zM901.12 290.048c0-11.264-9.216-20.48-20.48-20.48H135.168c-11.264 0-20.48 9.216-20.48 20.48v442.368c0 11.264 9.216 20.48 20.48 20.48H880.64c11.264 0 20.48-9.216 20.48-20.48V290.048zM507.904 673.024c-59.392 0-107.52-48.128-107.52-106.496 0-34.816 17.408-66.56 45.056-87.04V372.992h123.904v106.496c28.672 20.48 45.056 52.224 45.056 87.04 0 58.368-48.128 106.496-106.496 106.496zm30.72-163.84-10.24-6.144v-88.064H486.4v88.064l-10.24 6.144c-21.504 11.264-33.792 33.792-33.792 57.344 0 35.84 28.672 65.536 65.536 65.536 35.84 0 65.536-29.696 65.536-65.536 0-23.552-13.312-46.08-34.816-57.344z" glyph-name="icon_71" unicode="h"/><glyph d="M512 1184C229.248 1184 0 954.752 0 672s229.248-512 512-512 512 229.248 512 512-229.248 512-512 512zm0-960C264.96 224 64 424.96 64 672s200.96 448 448 448 448-200.96 448-448-200.96-448-448-448zm0 576c-35.328 0-64-28.672-64-64V416c0-35.328 28.672-64 64-64s64 28.672 64 64v320c0 35.328-28.672 64-64 64zm-64 126.976c0-35.346 28.654-64 64-64s64 28.654 64 64c0 35.346-28.654 64-64 64s-64-28.654-64-64z" glyph-name="info" unicode="p"/><glyph d="M826.368 498.944c-45.056 0-84.992-22.528-109.568-56.32L319.488 672c2.048 11.264 4.096 22.528 4.096 33.792 0 12.288-2.048 23.552-4.096 33.792l397.312 230.4c24.576-33.792 64.512-56.32 109.568-56.32 74.752 0 136.192 60.416 136.192 135.168S901.12 1184 826.368 1184 691.2 1123.584 691.2 1048.832c0-15.36 3.072-29.696 8.192-43.008-1.024 0-1.024 0-1.024-1.024L303.104 777.472c-23.552 37.888-65.536 64.512-114.688 64.512-74.752 0-135.168-61.44-135.168-136.192s60.416-135.168 135.168-135.168c49.152 0 91.136 26.624 114.688 64.512l395.264-228.352h1.024c-5.12-13.312-8.192-27.648-8.192-43.008 0-74.752 61.44-135.168 135.168-135.168S962.56 289.024 962.56 363.776s-61.44 135.168-136.192 135.168zm0 645.12c53.248 0 95.232-43.008 95.232-95.232S879.616 953.6 826.368 953.6c-52.224 0-95.232 43.008-95.232 95.232s43.008 95.232 95.232 95.232zM188.416 610.56c-52.224 0-95.232 43.008-95.232 95.232 0 53.248 43.008 95.232 95.232 95.232s95.232-41.984 95.232-95.232c0-52.224-43.008-95.232-95.232-95.232zm637.952-342.016c-52.224 0-95.232 43.008-95.232 95.232s43.008 95.232 95.232 95.232c53.248 0 95.232-43.008 95.232-95.232s-41.984-95.232-95.232-95.232z" glyph-name="icon_89" unicode="x"/><glyph d="M331.776 739.584c52.224 0 94.208 47.104 94.208 104.448 0 58.368-41.984 105.472-94.208 105.472s-94.208-47.104-94.208-105.472c0-57.344 41.984-104.448 94.208-104.448zm0 165.888c27.648 0 50.176-27.648 50.176-61.44 0-32.768-22.528-60.416-50.176-60.416S281.6 811.264 281.6 844.032c0 33.792 22.528 61.44 50.176 61.44zm635.904 221.184h-204.8c-8.192 32.768-38.912 57.344-74.752 57.344h-332.8c-35.84 0-65.536-24.576-74.752-57.344H56.32c-12.288 0-22.528-10.24-22.528-22.528V379.136c0-12.288 10.24-21.504 22.528-21.504h911.36c12.288 0 22.528 9.216 22.528 21.504v724.992c0 12.288-10.24 22.528-22.528 22.528zm-612.352 13.312h332.8c18.432 0 33.792-15.36 33.792-33.792s-15.36-32.768-33.792-32.768h-332.8c-18.432 0-32.768 14.336-32.768 32.768s14.336 33.792 32.768 33.792zm589.824-738.304H78.848v680.96h203.776c9.216-31.744 38.912-54.272 72.704-54.272h332.8c34.816 0 63.488 22.528 73.728 54.272h183.296v-680.96zM584.704 825.6c0-12.288 10.24-22.528 22.528-22.528h185.344c12.288 0 21.504 10.24 21.504 22.528s-9.216 21.504-21.504 21.504H607.232c-12.288 0-22.528-9.216-22.528-21.504zm-143.36-136.192c-70.656 25.6-147.456 25.6-218.112 0-34.816-12.288-60.416-51.2-58.368-86.016l6.144-89.088c1.024-12.288 10.24-21.504 22.528-21.504H471.04c11.264 0 21.504 9.216 21.504 21.504a1301.384 1301.384 0 0 1 6.144 89.088c3.072 34.816-22.528 73.728-57.344 86.016zm9.216-151.552H214.016l-5.12 68.608c-1.024 13.312 12.288 34.816 29.696 41.984 60.416 21.504 126.976 21.504 187.392 0 16.384-6.144 29.696-28.672 28.672-41.984-1.024-22.528-3.072-46.08-4.096-68.608zm342.016 168.96H607.232c-12.288 0-22.528-10.24-22.528-22.528s10.24-21.504 22.528-21.504h185.344c12.288 0 21.504 9.216 21.504 21.504s-9.216 22.528-21.504 22.528z" glyph-name="icon_95" unicode="~"/><glyph d="m51.968 614.976 76.032 60.8V224c0-35.328 28.672-64 64-64h192c35.328 0 64 28.672 64 64v256h128V224c0-35.328 28.672-64 64-64h192c35.328 0 64 28.672 64 64v451.776l76.032-60.8A32.02 32.02 0 0 1 992 608c9.408 0 18.688 4.096 25.024 12.032 11.008 13.824 8.768 33.92-4.992 44.992l-480 384a32.043 32.043 0 0 1-40 0L320 911.424V992c0 35.328-28.672 64-64 64s-64-28.672-64-64V809.024l-179.968-144c-13.76-11.072-16-31.168-4.992-44.992s31.104-16.064 44.928-5.056zM512 983.04l320-256V224H640v320H384V224H192v502.976L512 983.04z" glyph-name="house" unicode=""/><glyph d="M167.488 164.864A64.385 64.385 0 0 1 192 160a64.022 64.022 0 0 1 45.248 18.752L512 453.504l274.752-274.752A64.022 64.022 0 0 1 832 160a63.83 63.83 0 0 1 24.448 4.864C880.384 174.784 896 198.144 896 224v896c0 35.328-28.672 64-64 64H192c-35.328 0-64-28.672-64-64V224c0-25.856 15.616-49.216 39.488-59.136zM512 544 192 224v704h640V224L512 544zm320 576V992H192v128h640z" glyph-name="bookmark" unicode=""/><glyph d="M512 1184C229.248 1184 0 954.752 0 672s229.248-512 512-512 512 229.248 512 512-229.248 512-512 512zm0-960C264.96 224 64 424.96 64 672s200.96 448 448 448 448-200.96 448-448-200.96-448-448-448zm207.04 699.136L520.384 799.168c63.872-4.224 114.56-54.848 118.784-118.784L763.136 879.04c7.936 12.608 6.08 29.056-4.48 39.552-10.624 10.624-27.136 12.416-39.616 4.544zm-334.208-259.52-123.968-198.72c-7.936-12.608-6.08-29.056 4.48-39.552A32.193 32.193 0 0 1 288 416c5.888 0 11.776 1.6 16.96 4.864l198.656 123.968c-63.872 4.224-114.56 54.912-118.784 118.784zm135.552 135.552c-2.816.192-5.504.832-8.384.832-70.72 0-128-57.28-128-128 0-2.88.64-5.568.832-8.384 4.224-63.872 54.912-114.56 118.784-118.784 2.816-.192 5.504-.832 8.384-.832 70.72 0 128 57.28 128 128 0 2.88-.64 5.568-.832 8.384-4.224 63.872-54.912 114.56-118.784 118.784zM448 672c0 35.264 28.736 64 64 64s64-28.736 64-64-28.736-64-64-64-64 28.736-64 64z" glyph-name="directions" unicode=""/><glyph d="M486.784 658.432c91.968 0 166.784 74.816 166.784 166.784S578.752 992 486.784 992 320 917.184 320 825.216c0-91.968 74.816-166.784 166.784-166.784zm0 269.568c56.64 0 102.784-46.08 102.784-102.784s-46.08-102.784-102.784-102.784S384 768.576 384 825.216 430.08 928 486.784 928zm-23.296-750.656c5.376-5.952 10.56-9.792 15.552-12.48.064-.064.192-.064.256-.128 3.456-1.792 6.848-3.136 10.048-3.136s6.592 1.344 10.048 3.136c.064.064.192.064.256.128 4.992 2.688 10.176 6.528 15.552 12.48 0 0 297.472 323.52 327.36 603.84 1.792 14.464 3.008 29.12 3.008 44.032 0 198.144-160.64 358.784-358.784 358.784S128 1023.36 128 825.216c0-15.168 1.216-29.952 3.072-44.608 30.656-280.192 332.416-603.264 332.416-603.264zM486.784 1120c162.56 0 294.784-132.224 294.784-294.784 0-10.816-.768-22.336-2.624-37.248-22.912-214.784-224.576-466.816-289.536-543.488-66.624 76.8-271.168 328.192-294.848 544-1.728 14.144-2.56 25.792-2.56 36.736C192 987.776 324.224 1120 486.784 1120z" glyph-name="marker" unicode=""/><glyph d="M278.08 615.296c-13.632-15.488-18.944-36.608-14.336-56.704s18.688-36.736 37.696-44.672c45.44-19.008 122.688-31.04 210.624-33.472 0-.128-.064-.256-.064-.448V288c0-35.328 14.336-128 32-128s32 92.672 32 128v192c0 .192-.064.32-.064.512 87.936 2.368 165.184 14.464 210.624 33.472 19.008 7.936 33.088 24.576 37.696 44.672s-.704 41.216-14.336 56.64c-26.24 29.76-72.064 46.208-105.92 54.784v331.52c33.472 11.328 61.888 25.536 84.352 42.112 19.2 14.144 28.928 37.888 25.216 61.44s-20.224 43.136-42.88 50.752C739.456 1166.4 668.416 1184 544 1184c-131.52 0-204.16-20.288-229.312-28.992a63.976 63.976 0 0 1-42.24-50.56c-3.648-23.296 5.888-46.784 24.768-61.056 22.784-17.088 51.904-31.552 86.72-42.944H384V670.08c-33.792-8.512-79.68-24.96-105.92-54.784zm125.824 445.952c-33.408 10.944-55.104 23.424-68.224 33.344C369.728 1106.368 438.656 1120 544 1120c103.296 0 171.712-13.12 206.4-24.768-13.568-9.984-35.072-22.208-66.944-33.024L640 1047.488v-427.2l48.256-12.224c35.392-8.96 62.144-22.016 73.6-35.072C732.224 560.64 660.224 544 544 544s-188.224 16.64-217.856 28.992c11.52 13.056 38.272 26.112 73.6 35.072L448 620.288v426.56l-44.096 14.4z" glyph-name="pin" unicode=""/><glyph d="M951.296 324.864v438.272q-18.432-20.48-39.936-37.888-152.576-116.736-243.712-192.512-28.672-24.576-47.104-38.912t-49.152-27.648-58.368-13.312h-2.048q-26.624 0-58.368 13.312t-49.152 27.648-47.104 38.912Q266.24 608.512 112.64 725.248q-21.504 17.408-39.936 37.888V324.864q0-8.192 6.144-13.312t12.288-5.12h841.728q7.168 0 12.288 5.12t6.144 13.312zm0 600.064v14.336l-1.024 7.168-1.024 7.168-3.072 5.12-5.12 4.096-8.192 2.048H91.136q-7.168 0-12.288-6.144t-6.144-12.288q0-96.256 83.968-162.816 110.592-87.04 229.376-181.248 4.096-2.048 20.48-16.384t25.6-21.504 25.6-18.432 28.672-15.36 24.576-5.12h2.048q11.264 0 24.576 5.12t28.672 15.36 25.6 18.432 25.6 21.504 20.48 16.384q118.784 94.208 229.376 181.248 30.72 24.576 57.344 66.56t26.624 74.752zM1024 946.432V324.864q0-37.888-26.624-64.512t-64.512-27.648H91.136q-36.864 0-64.512 27.648T0 324.864v621.568q0 37.888 26.624 64.512t64.512 26.624h841.728q37.888 0 64.512-26.624T1024 946.432z" glyph-name="mail" unicode=""/><glyph d="M292.864 763.136V434.432q0-8.192-5.12-13.312T274.432 416h-36.864q-8.192 0-13.312 5.12t-5.12 13.312v328.704q0 8.192 5.12 13.312t13.312 5.12h36.864q8.192 0 13.312-5.12t5.12-13.312zm146.432 0V434.432q0-8.192-5.12-13.312T420.864 416H384q-8.192 0-13.312 5.12t-5.12 13.312v328.704q0 8.192 5.12 13.312t13.312 5.12h36.864q8.192 0 13.312-5.12t5.12-13.312zm145.408 0V434.432q0-8.192-5.12-13.312T567.296 416h-36.864q-8.192 0-13.312 5.12T512 434.432v328.704q0 8.192 5.12 13.312t13.312 5.12h36.864q7.168 0 12.288-5.12t5.12-13.312zm73.728-413.696v541.696h-512V349.44q0-12.288 4.096-22.528t8.192-15.36 6.144-5.12H640q2.048 0 6.144 5.12t8.192 15.36 4.096 22.528zm-384 615.424h256l-27.648 66.56q-4.096 5.12-9.216 6.144H312.32q-6.144-1.024-10.24-6.144zm530.432-18.432v-36.864q0-8.192-5.12-13.312t-13.312-5.12h-55.296V349.44q0-47.104-26.624-81.92T640 232.704H164.864q-37.888 0-64.512 33.792t-27.648 80.896v543.744H18.432q-8.192 0-13.312 5.12T0 909.568v36.864q0 8.192 5.12 13.312t13.312 5.12H194.56l39.936 95.232q9.216 21.504 31.744 35.84t45.056 15.36h182.272q22.528 0 45.056-15.36t30.72-35.84l39.936-95.232h177.152q8.192 0 13.312-5.12t5.12-13.312z" glyph-name="trash" horiz-adv-x="804" unicode=""/><glyph d="M358.4 872.704q0-7.168-6.144-12.288L128 635.136 352.256 410.88q6.144-6.144 6.144-13.312t-6.144-13.312l-28.672-28.672q-5.12-5.12-12.288-5.12t-13.312 5.12l-266.24 266.24q-6.144 6.144-6.144 13.312t6.144 13.312l266.24 266.24q5.12 6.144 13.312 6.144t12.288-6.144l28.672-28.672q6.144-5.12 6.144-13.312z" glyph-name="angle-left" horiz-adv-x="366" unicode=""/><glyph d="M339.968 635.136q0-7.168-6.144-13.312l-266.24-266.24q-5.12-5.12-12.288-5.12t-13.312 5.12l-28.672 28.672q-6.144 6.144-6.144 13.312t6.144 13.312l224.256 224.256-224.256 225.28q-6.144 5.12-6.144 12.288t6.144 13.312l28.672 28.672q5.12 6.144 13.312 6.144t12.288-6.144l266.24-266.24q6.144-5.12 6.144-13.312z" glyph-name="angle-right" horiz-adv-x="366" unicode=""/><glyph d="M614.4 507.136q0-7.168-6.144-13.312l-28.672-27.648q-5.12-6.144-12.288-6.144t-13.312 6.144l-225.28 224.256-224.256-224.256q-5.12-6.144-13.312-6.144t-13.312 6.144l-27.648 27.648q-6.144 6.144-6.144 13.312t6.144 13.312l266.24 266.24q5.12 6.144 12.288 6.144t13.312-6.144l266.24-266.24q6.144-5.12 6.144-13.312z" glyph-name="angle-up" horiz-adv-x="657" unicode=""/><glyph d="M614.4 763.136q0-7.168-6.144-13.312l-266.24-266.24q-5.12-5.12-13.312-5.12t-12.288 5.12l-266.24 266.24q-6.144 6.144-6.144 13.312t6.144 13.312l27.648 28.672q6.144 6.144 13.312 6.144t13.312-6.144l224.256-224.256 225.28 224.256q5.12 6.144 13.312 6.144t12.288-6.144l28.672-28.672q6.144-5.12 6.144-13.312z" glyph-name="angle-down" horiz-adv-x="657" unicode=""/><glyph d="M1088 1088h-64v64c0 35.2-28.8 64-64 64H64c-35.2 0-64-28.8-64-64V384c0-35.2 28.8-64 64-64h64v-64c0-35.2 28.8-64 64-64h896c35.2 0 64 28.8 64 64v768c0 35.2-28.8 64-64 64zm-960-64V384H64.114a.891.891 0 0 0-.114.116v767.77c.034.04.076.082.114.114h895.77c.04-.034.082-.076.116-.116V1088H192c-35.2 0-64-28.8-64-64zm960-767.884a1.059 1.059 0 0 0-.116-.116h-895.77a.891.891 0 0 0-.114.116v767.77c.034.04.076.082.114.114h895.77c.04-.034.082-.076.116-.116V256.116zM960 864c0-53.02-42.98-96-96-96s-96 42.98-96 96 42.98 96 96 96 96-42.98 96-96zm64-544H256v128l224 384 256-320h64l224 192z" glyph-name="images" horiz-adv-x="1152" unicode=""/><glyph d="M655.36 801.024q20.48 0 40.96-19.456t20.48-41.984v-399.36q0-49.152-49.152-67.584l-61.44-18.432q-43.008-16.384-98.304-16.384h-296.96q-57.344 0-100.352 16.384l-61.44 18.432Q0 291.072 0 340.224v399.36q0 22.528 15.36 41.984t35.84 19.456h102.4v71.68q0 112.64 52.224 174.08t152.576 61.44 152.576-61.44 52.224-174.08v-71.68h92.16zM256 893.184v-92.16h204.8v92.16q0 53.248-27.648 82.944t-74.752 29.696-74.752-29.696T256 893.184z" glyph-name="lock" horiz-adv-x="717" unicode=""/><glyph d="M655.36 774.4q20.48 0 40.96-20.48t20.48-40.96V313.6q0-20.48-14.336-39.936t-34.816-25.6l-61.44-20.48Q552.96 211.2 507.904 211.2h-296.96q-47.104 0-100.352 16.384l-61.44 20.48q-20.48 6.144-34.816 25.6T0 313.6v399.36q0 22.528 15.36 41.984T51.2 774.4h409.6v143.36q0 112.64-102.4 112.64T256 917.76V876.8H153.6v20.48q0 112.64 52.224 174.08T358.4 1132.8q204.8 0 204.8-235.52V774.4h92.16z" glyph-name="lock-open" horiz-adv-x="717" unicode=""/><glyph d="M1011.712 626.944q30.72-83.968-10.24-180.224T864.256 282.88q-10.24 0-12.288 2.048t-16.384 19.456T819.2 323.84q-2.048 6.144 2.048 10.24 88.064 61.44 119.808 155.648T929.792 641.28q-16.384-38.912-39.936-77.824t-60.416-81.92-88.064-66.56-108.544-15.36q-53.248 6.144-86.016 41.984t-32.768 95.232q0 86.016 61.44 151.552 51.2 51.2 116.736 67.584l-2.048 102.4q-143.36-24.576-149.504-24.576-6.144-2.048-10.24 4.096 0 2.048-5.12 29.696t-5.12 31.744q-2.048 2.048 1.024 4.096t7.168 2.048l159.744 28.672q0 112.64-2.048 116.736 0 8.192 8.192 8.192 47.104 0 53.248 2.048 10.24 0 10.24-8.192V946.432q161.792 22.528 167.936 22.528 8.192 4.096 10.24-6.144 0-2.048 4.096-23.552t4.096-25.6q4.096-10.24-4.096-12.288l-180.224-30.72V766.208h12.288q88.064 0 151.552-36.864t88.064-102.4zm-378.88-163.84q28.672-6.144 63.488 6.144l-4.096 219.136q-34.816-12.288-61.44-40.96-45.056-45.056-45.056-110.592 0-67.584 47.104-73.728zm124.928 28.672q28.672 24.576 59.392 69.632t46.08 80.896 7.168 41.984q-36.864 18.432-98.304 18.432-2.048 0-6.144-1.024t-6.144-1.024zM299.008 882.944q10.24-28.672 54.272-168.96t84.992-267.264 40.96-129.024q0-4.096-4.096-4.096h-88.064q-6.144 0-6.144 4.096l-51.2 169.984H149.504q-49.152-167.936-51.2-169.984 0-4.096-6.144-4.096H4.096Q0 313.6 0 317.696q10.24 18.432 180.224 565.248 2.048 8.192 10.24 8.192h98.304q10.24 0 10.24-8.192zM165.888 559.36h147.456l-73.728 270.336z" glyph-name="language" horiz-adv-x="1025" unicode=""/><glyph d="M987.136 1064.192q31.744-31.744 53.248-75.776t27.648-111.616-12.288-140.288T979.968 569.6 827.392 380.16Q584.704 137.472 362.496 137.472q-137.216 0-220.16 83.968l-95.232 94.208Q0 362.752 0 429.312t47.104 112.64l84.992 84.992q47.104 47.104 112.64 47.104t112.64-47.104l73.728-72.704 223.232 221.184-74.752 73.728Q532.48 897.28 532.48 962.816t47.104 113.664l84.992 83.968q46.08 46.08 113.664 46.08 66.56 0 112.64-46.08zm-331.776-63.488Q640 985.344 640 962.816t15.36-37.888l57.344-57.344 160.768 159.744-58.368 57.344q-15.36 15.36-36.864 15.36-22.528 0-37.888-15.36zm-533.504-609.28 58.368-57.344 160.768 159.744-59.392 57.344q-15.36 15.36-36.864 15.36t-36.864-15.36L121.856 467.2q-15.36-15.36-15.36-37.888t15.36-37.888zm629.76 63.488q82.944 83.968 133.12 162.816t65.536 136.192 11.264 107.52-17.408 79.872-32.768 48.128L751.616 828.672l15.36-15.36q15.36-15.36 15.36-37.888t-15.36-36.864L468.992 439.552q-15.36-15.36-37.888-15.36t-37.888 15.36l-15.36 17.408-159.744-161.792q51.2-51.2 144.384-51.2 178.176 0 389.12 210.944z" glyph-name="phone" horiz-adv-x="1069" unicode=""/><glyph d="M320.512 778.496h159.744V618.752H320.512V246.016H159.744v372.736H0v159.744h159.744v67.584q0 51.2 16.384 104.448t44.032 82.944q59.392 65.536 148.48 65.536h111.616V938.24H368.64q-20.48 0-34.816-13.312t-13.312-33.792v-112.64z" glyph-name="facebook" horiz-adv-x="480" unicode=""/><glyph d="M466.944 865.536q0 81.92 58.368 138.24T665.6 1061.12q87.04 0 142.336-60.416 61.44 13.312 124.928 46.08-20.48-68.608-84.992-108.544 54.272 8.192 112.64 31.744-39.936-59.392-99.328-103.424v-24.576q0-139.264-61.44-261.12-61.44-123.904-194.56-210.944T302.08 282.88q-165.888 0-302.08 88.064 20.48-2.048 49.152-2.048 136.192 0 242.688 82.944-66.56 1.024-115.712 40.96t-67.584 97.28q13.312-5.12 35.84-5.12t51.2 6.144q-66.56 14.336-110.592 68.608t-45.056 128Q76.8 767.232 128 763.136 39.936 824.576 39.936 928q0 49.152 26.624 97.28 161.792-195.584 407.552-203.776-7.168 22.528-7.168 44.032z" glyph-name="twitter" horiz-adv-x="961" unicode=""/><glyph d="m0 191.744 61.44 287.744 642.048 643.072q21.504 21.504 52.224 21.504t51.2-20.48l123.904-124.928q21.504-21.504 21.504-51.2t-21.504-51.2L287.744 253.184zM69.632 262.4l198.656 45.056 24.576 25.6-152.576 152.576-24.576-24.576z" glyph-name="pencil" horiz-adv-x="952" unicode=""/><glyph d="M0 209.152v793.6h94.208q0 29.696 1.024 39.936t4.096 32.768 11.264 30.72 25.6 16.384 40.96 8.192 41.984-8.192 24.576-16.384 11.264-30.72 4.096-32.768v-39.936h56.32v39.936l4.096 32.768 12.288 30.72 24.576 16.384 40.96 8.192q18.432 0 31.744-4.096t22.528-8.192 14.336-17.408 9.216-19.456 4.096-24.576 1.024-25.6v-28.672h55.296v28.672l2.048 25.6 4.096 24.576 8.192 19.456 15.36 17.408 21.504 8.192 31.744 4.096q24.576 0 41.984-8.192t24.576-16.384 11.264-30.72 4.096-32.768v-39.936h94.208v-793.6H0zM66.56 390.4V275.712h142.336V390.4H66.56zm0 22.528h142.336v121.856H66.56V412.928zm0 144.384h142.336v133.12H66.56v-133.12zm0 154.624h142.336v114.688H66.56V711.936zm72.704 207.872q0-33.792 37.888-33.792t37.888 33.792v133.12q0 33.792-37.888 33.792t-37.888-33.792v-133.12zM230.4 390.4V275.712h155.648V390.4H230.4zm0 22.528h155.648v121.856H230.4V412.928zm0 144.384h155.648v133.12H230.4v-133.12zm0 154.624h155.648v114.688H230.4V711.936zm129.024 207.872q0-33.792 37.888-33.792 38.912 0 38.912 33.792v133.12q0 33.792-38.912 33.792-37.888 0-37.888-33.792v-133.12zM407.552 390.4V275.712H563.2V390.4H407.552zm0 22.528H563.2v121.856H407.552V412.928zm0 144.384H563.2v133.12H407.552v-133.12zm0 154.624H563.2v114.688H407.552V711.936zm172.032 207.872q0-33.792 38.912-33.792 37.888 0 37.888 33.792v133.12q0 33.792-37.888 33.792-38.912 0-38.912-33.792v-133.12zm5.12-529.408V275.712h143.36V390.4h-143.36zm0 22.528h143.36v121.856h-143.36V412.928zm0 144.384h143.36v133.12h-143.36v-133.12zm0 154.624h143.36v114.688h-143.36V711.936z" glyph-name="calendar" horiz-adv-x="795" unicode=""/><glyph d="M187.392 1184C82.944 1184 0 1101.056 0 996.608V347.392C0 242.944 82.944 160 187.392 160h352.256v400.384H433.152v144.384h106.496v122.88c0 96.256 62.464 185.344 205.824 185.344 58.368 0 102.4-5.12 102.4-5.12l-4.096-135.168s-44.032 1.024-92.16 1.024c-51.2 0-59.392-24.576-59.392-63.488V704.768h155.648l-6.144-144.384H692.224V160h144.384C941.056 160 1024 242.944 1024 347.392v649.216C1024 1101.056 941.056 1184 836.608 1184H187.392z" glyph-name="facebook-squared" unicode=""/><glyph d="M3.072 562.432Q34.816 661.76 112.64 739.584q60.416 62.464 207.872 148.48 132.096 75.776 182.272 125.952 56.32 56.32 75.776 123.904 6.144 16.384 16.384 27.648 14.336 12.288 29.696 16.384 35.84 8.192 62.464-16.384l319.488-319.488q26.624-27.648 16.384-64.512-31.744-101.376-110.592-177.152-59.392-62.464-207.872-148.48-132.096-75.776-181.248-125.952-56.32-54.272-76.8-123.904-6.144-16.384-15.36-27.648-14.336-12.288-30.72-16.384-35.84-8.192-61.44 16.384L18.432 497.92q-25.6 27.648-15.36 64.512zM64.512 544l320.512-320.512q25.6 80.896 86.016 143.36t131.072 104.448l141.312 81.92L875.52 656.64 960.512 800l-319.488 319.488q-24.576-79.872-84.992-142.336T423.936 872.704L281.6 790.784 150.528 687.36 64.512 544zm280.576-203.776 21.504 29.696q22.528 27.648 48.128 54.272 22.528 23.552 56.32 50.176 11.264 9.216 21.504 0 12.288-12.288 0-24.576h-2.048q-31.744-25.6-53.248-48.128-24.576-23.552-44.032-49.152l-20.48-28.672q-2.048-2.048-2.048-4.096-12.288-12.288-23.552 0-8.192 10.24-2.048 20.48zm27.648 367.616q2.048 18.432 10.24 33.792 8.192 18.432 19.456 32.768 0 2.048-5.12 5.12-4.096 2.048-4.096 7.168t4.096 10.24 8.192 5.12 7.168-4.096q4.096-4.096 8.192-6.144 8.192 8.192 20.48 16.384t28.672 12.288 29.696 1.024 24.576-15.36q8.192-8.192 8.192-18.432t-8.192-15.36q-5.12-6.144-15.36-4.096-6.144 2.048-18.432 4.096-9.216 4.096-20.48 3.072t-23.552-11.264q20.48-20.48 52.224-58.368 14.336 8.192 31.744 14.336 16.384 6.144 32.768 8.192t31.744-3.072 31.744-17.408q14.336-12.288 20.48-25.6 4.096-14.336 2.048-30.72 0-15.36-10.24-33.792-8.192-19.456-22.528-37.888 8.192-6.144 16.384-13.312 4.096-2.048 5.12-7.168t-3.072-9.216-9.216-5.12-9.216 3.072q-9.216 8.192-15.36 16.384-18.432-18.432-35.84-24.576-16.384-6.144-34.816-6.144-15.36 2.048-28.672 8.192t-20.48 15.36-8.192 17.408 8.192 16.384 13.312 7.168 13.312-3.072 13.312-8.192 13.312-7.168 17.408 0 20.48 12.288q-21.504 21.504-57.344 63.488-32.768-17.408-66.56-19.456-29.696-2.048-51.2 15.36-14.336 12.288-20.48 26.624t-4.096 29.696zm43.008 11.264q-1.024-7.168 1.024-14.336t8.192-10.24q10.24-10.24 22.528-9.216t33.792 10.24q-30.72 32.768-50.176 52.224-6.144-8.192-10.24-14.336t-5.12-14.336zm114.688 146.432q-9.216 10.24 0 22.528 2.048 2.048 4.096 2.048 32.768 25.6 54.272 48.128 23.552 23.552 44.032 50.176l19.456 27.648q2.048 4.096 4.096 4.096 12.288 12.288 22.528 0 10.24-10.24 2.048-22.528l-22.528-29.696q-21.504-27.648-48.128-54.272-21.504-23.552-55.296-49.152-12.288-10.24-24.576 1.024zm4.096-199.68q32.768-35.84 54.272-57.344 6.144 5.12 10.24 13.312t6.144 16.384 0 14.336-9.216 14.336-15.36 9.216-15.36 1.024-16.384-5.12q-4.096-2.048-14.336-6.144z" glyph-name="money" horiz-adv-x="1025" unicode=""/><glyph d="M0 827.648q0 28.672 18.432 46.08l163.84 161.792Q199.68 1056 226.304 1056h571.392q26.624 0 44.032-20.48l163.84-161.792Q1024 856.32 1024 829.696q0-23.552-16.384-44.032L560.128 310.528Q539.648 288 512 288t-48.128 22.528L16.384 785.664Q0 804.096 0 827.648zm64.512 4.096h137.216l86.016 86.016-73.728 62.464zM92.16 800l314.368-335.872L205.824 800H92.16zm149.504 0 236.544-392.192L400.384 800h-158.72zm4.096 31.744h146.432l-79.872 66.56zm2.048 159.744 62.464-51.2 52.224 51.2H247.808zm86.016-71.68 81.92-67.584 72.704 59.392-88.064 72.704zM432.128 800 512 401.664 591.872 800H432.128zm8.192 31.744h143.36L512 890.112zm0 159.744L512 932.096l69.632 59.392H440.32zm97.28-79.872 70.656-59.392 81.92 67.584-66.56 64.512zm8.192-503.808L782.336 800h-158.72zm72.704 56.32L931.84 800H818.176zm13.312 367.616H778.24l-66.56 66.56zm29.696 159.744 52.224-51.2 62.464 51.2H661.504zm74.752-73.728 86.016-86.016h136.192l-148.48 148.48z" glyph-name="diamond" unicode=""/><glyph d="M0 223.488v96.256q0 20.48 18.432 39.936l388.096 388.096Q384 806.144 384 864.512q0 131.072 94.208 225.28T704.512 1184t225.28-94.208T1024 864.512t-94.208-226.304T704.512 544q-58.368 0-116.736 22.528L512 491.776V416q0-25.6-19.456-45.056t-44.032-18.432H384V288q0-25.6-19.456-45.056t-44.032-18.432H245.76l-46.08-46.08Q182.272 160 159.744 160H64.512q-26.624 0-45.056 19.456T0 224.512zm64.512 0H153.6l46.08 46.08Q218.112 288 245.76 288h74.752v64.512q0 25.6 18.432 44.032T384 416h64.512v75.776q0 26.624 17.408 44.032l108.544 108.544q61.44-35.84 130.048-35.84 105.472 0 180.224 74.752t74.752 181.248-74.752 180.224-180.224 74.752-181.248-74.752-74.752-180.224q0-68.608 35.84-130.048l-46.08-46.08-373.76-372.736v-92.16zM640 953.6q0 4.096 2.048 10.24 23.552 66.56 90.112 90.112 15.36 6.144 27.648-4.096 75.776-54.272 130.048-130.048Q896 911.616 896 902.4q0-4.096-2.048-10.24-23.552-66.56-90.112-90.112-15.36-6.144-27.648 4.096-75.776 54.272-130.048 130.048Q640 944.384 640 953.6zm31.744 0q52.224-71.68 121.856-121.856 52.224 18.432 70.656 70.656-50.176 69.632-121.856 121.856-52.224-18.432-70.656-70.656z" glyph-name="key" unicode=""/><glyph d="M682.667 1184c-294.4 0-533.333-238.933-533.333-533.333 0-132.267 51.2-251.733 157.867-409.6 110.933-157.867 375.467-422.4 375.467-422.4S921.601 96 1036.801 236.8c115.2 145.067 179.2 277.333 179.2 409.6 0 298.667-238.933 537.6-533.333 537.6zM883.2 343.467 682.667 462.934 482.134 343.467 524.801 582.4l-166.4 162.133 226.133 34.133 98.133 217.6 98.133-217.6 226.133-34.133-166.4-157.867 42.667-243.2z" glyph-name="pin-star" horiz-adv-x="1365" unicode=""/><glyph d="M1352.533 659.2 883.2 731.733 678.4 1184 482.133 731.733 12.8 659.2l341.333-332.8-81.067-507.733 405.333 256 413.867-256-81.067 507.733z" glyph-name="star-1" horiz-adv-x="1365" unicode=""/><glyph d="M674.133 1184 870.4 731.733l469.333-72.533L998.4 322.133l85.333-503.467-409.6 251.733-413.867-251.733 81.067 503.467L0 659.2l469.333 72.533zM2304 70.4l-413.867-251.733 89.6 503.467-349.867 337.067 469.333 72.533 204.8 452.267" glyph-name="star-15" horiz-adv-x="2304" unicode=""/><glyph d="m657.067 1166.933 196.267-439.467 456.533-72.533-332.8-328.533 81.067-490.667L657.067 83.2 251.734-164.267 332.801 326.4.001 654.933l456.533 72.533zm1591.466 0L2444.8 727.466l456.533-72.533-332.8-328.533 85.333-490.667L2248.533 83.2 1843.2-164.267l81.067 490.667-332.8 328.533L2048 727.466z" glyph-name="star-2" horiz-adv-x="2901" unicode=""/><glyph d="M674.133 1184 870.4 727.467l469.333-68.267L998.4 317.867l85.333-499.2-409.6 247.467-413.867-247.467 81.067 499.2L0 659.2l469.333 68.267zM2304 1184l196.267-456.533L2969.6 659.2l-341.333-341.333 89.6-499.2L2304 66.134l-413.867-247.467 89.6 499.2L1629.866 659.2l469.333 68.267zM3933.867 66.133 3520-181.334l89.6 499.2-349.867 341.333 469.333 68.267 204.8 456.533" glyph-name="star-25" horiz-adv-x="3933" unicode=""/><glyph d="m866.133 731.733-196.267 448-204.8-448L-.001 659.2l341.333-332.8-85.333-503.467L669.866 74.666l405.333-251.733L989.866 326.4l341.333 332.8zm1617.067 0-196.267 448-204.8-448-465.067-72.533 341.333-332.8-85.333-503.467 413.867 251.733 409.6-251.733-89.6 503.467 341.333 332.8zM4565.333 659.2l-465.067 72.533-196.267 448-204.8-448-465.067-72.533 345.6-332.8-89.6-503.467 413.867 251.733 409.6-251.733-89.6 503.467z" glyph-name="star-3" horiz-adv-x="4565" unicode=""/><glyph d="M674.133 1184 870.4 731.733l469.333-72.533L998.4 322.133l85.333-503.467-409.6 251.733-413.867-251.733 81.067 503.467L0 659.2l469.333 72.533zM2304 1184l196.267-452.267L2969.6 659.2l-341.333-337.067 89.6-503.467L2304 70.399l-413.867-251.733 89.6 503.467L1629.866 659.2l469.333 72.533zm1629.867 0 196.267-452.267 469.333-72.533-341.333-337.067 89.6-503.467-413.867 251.733L3520-181.334l89.6 503.467L3259.733 659.2l469.333 72.533zM5563.733 70.4l-413.867-251.733 89.6 503.467-349.867 337.067 469.333 72.533 204.8 452.267" glyph-name="star-35" horiz-adv-x="5563" unicode=""/><glyph d="m669.867 1179.733 196.267-448 465.067-72.533-341.333-332.8 85.333-503.467L669.868 74.666 256.001-177.067 341.334 326.4.001 659.2l465.067 72.533zm1617.066 0 196.267-448 465.067-72.533L2611.2 326.4l89.6-503.467-413.867 251.733-413.867-251.733 89.6 503.467-345.6 332.8 465.067 72.533zm1617.067 0 200.533-448L4569.6 659.2l-341.333-332.8 89.6-503.467L3904 74.666l-409.6-251.733L3584 326.4l-345.6 332.8 465.067 72.533zm1621.333 0 196.267-448 465.067-72.533-341.333-332.8 89.6-503.467-409.6 251.733-413.867-251.733 89.6 503.467-345.6 332.8 465.067 72.533z" glyph-name="star-4" horiz-adv-x="6187" unicode=""/><glyph d="M674.133 1184 870.4 731.733l469.333-72.533L998.4 322.133l85.333-503.467-409.6 251.733-413.867-251.733 81.067 503.467L0 659.2l469.333 72.533zM2304 1184l196.267-452.267L2969.6 659.2l-341.333-337.067 89.6-503.467L2304 70.399l-413.867-251.733 89.6 503.467L1629.866 659.2l469.333 72.533zm1629.867 0 196.267-452.267 469.333-72.533-341.333-337.067 89.6-503.467-413.867 251.733L3520-181.334l89.6 503.467L3259.733 659.2l469.333 72.533zm1629.866 0L5760 731.733l469.333-72.533L5888 322.133l89.6-503.467-413.867 251.733-413.867-251.733 89.6 503.467L4889.599 659.2l469.333 72.533zM7193.6 70.4l-413.867-251.733 89.6 503.467-349.867 337.067 469.333 72.533 204.8 452.267" glyph-name="star-45" horiz-adv-x="7192" unicode=""/><glyph d="m691.2 1184 196.267-452.267L1356.8 659.2l-341.333-337.067 85.333-503.467L691.2 70.399 273.067-181.334 358.4 322.133 17.067 659.2 486.4 731.733zm1629.867 0 196.267-452.267 469.333-72.533-341.333-337.067 89.6-503.467-413.867 251.733-418.133-251.733 93.867 503.467L1646.934 659.2l469.333 72.533zm1629.866 0L4147.2 731.733l469.333-72.533L4275.2 322.133l89.6-503.467-413.867 251.733L3532.8-181.334l93.867 503.467L3276.8 659.2l469.333 72.533zm1629.867 0 196.267-452.267L6246.4 659.2l-341.333-337.067 89.6-503.467L5580.8 70.399l-418.133-251.733 93.867 503.467L4906.667 659.2 5376 731.733zm1629.867 0 196.267-452.267 469.333-72.533-341.333-337.067 89.6-503.467-413.867 251.733-418.133-251.733 93.867 503.467L6536.534 659.2l469.333 72.533z" glyph-name="star-5" horiz-adv-x="7893" unicode=""/></font>
</defs>
</svg>
